<svg width="41" height="41" viewBox="0 0 41 41" fill="none" xmlns="http://www.w3.org/2000/svg">
<g filter="url(#filter0_d_17137_3435)">
<path fill-rule="evenodd" clip-rule="evenodd" d="M28.3978 31.6248C27.9372 29.9806 26.5635 28.0496 25.4935 25.9642C26.4107 27.7517 27.3278 29.5393 28.3978 31.6248ZM30.9819 31.4368C29.4554 29.2079 28.5362 26.67 27.617 24.132C26.8548 23.3928 26.2475 23.7019 25.6402 24.0109C24.5784 24.927 23.5146 25.0927 24.7334 25.9753C26.2599 28.2042 27.3299 30.2897 28.0962 32.5297C28.3999 32.3751 29.0072 32.0661 29.3108 31.9115C29.9181 31.6025 30.0689 31.15 30.9819 31.4368ZM24.4235 23.8787C23.9629 22.2345 22.5892 20.3036 21.5192 18.2181C22.4364 20.0056 23.3535 21.7932 24.4235 23.8787ZM20.2964 15.8347C19.9886 14.4884 18.4621 12.2595 17.5449 10.472C18.4621 12.2595 19.2264 13.7492 20.4492 16.1326C20.4492 16.1326 20.4492 16.1326 20.2964 15.8347ZM22.8805 15.6467C21.5068 13.7158 20.5876 11.1778 19.5155 8.34194C18.9062 7.90062 18.2989 8.20968 17.6916 8.51875C16.6299 9.43481 15.5661 9.60048 16.7848 10.4831C18.1584 12.4141 19.3813 14.7975 20.1476 17.0375C20.4513 16.883 21.0586 16.5739 21.3622 16.4194C21.8167 15.8124 22.1203 15.6578 22.8805 15.6467ZM16.3221 8.08857C16.0143 6.74233 14.4878 4.51346 13.5706 2.7259C14.4878 4.51346 15.2521 6.00309 16.4749 8.3865L16.3221 8.08857ZM18.9062 7.90062C17.5325 5.96967 16.6133 3.43172 15.5412 0.595853C14.9319 0.154533 14.3246 0.463599 13.7173 0.772666C12.6556 1.68872 11.4389 1.55647 12.8105 2.73704C14.1841 4.66799 15.407 7.0514 16.1733 9.29142C16.477 9.13688 17.0843 8.82782 17.2351 8.37536C17.8424 8.06629 18.146 7.91176 18.9062 7.90062ZM18.3216 16.4639C17.105 16.3317 16.1919 16.0449 14.9753 15.9126C16.1919 16.0449 16.9521 16.0338 18.3216 16.4639C16.4956 15.8904 15.1261 15.4602 13.4529 15.1845C14.8224 15.6147 16.0391 15.747 17.8651 16.3205C15.8862 15.449 14.2131 15.1734 12.6907 14.4453C14.0602 14.8755 15.4297 15.3056 17.4086 16.1771C15.7334 15.1511 13.9074 14.5775 12.0813 14.004C13.9074 14.5775 15.8862 15.449 18.3216 16.4639C18.7781 16.6073 18.7781 16.6073 18.3216 16.4639ZM17.7143 16.773C17.7143 16.773 17.4107 16.9275 17.2578 16.6296C14.9774 16.663 13.0005 16.5419 11.1766 16.7187C12.8498 16.9944 14.6737 16.8176 16.4977 16.6407C14.6737 16.8176 13.1534 16.8398 11.786 17.16C13.3063 17.1378 15.1302 16.9609 16.9542 16.7841C15.4339 16.8064 14.0664 17.1266 12.699 17.4468C14.5229 17.27 15.8904 16.9498 17.4107 16.9275C16.3469 17.0932 15.2831 17.2589 14.2193 17.4245C15.2831 17.2589 16.3469 17.0932 17.4107 16.9275C17.7143 16.773 17.7143 16.773 17.7143 16.773ZM18.6315 18.5606C18.0242 18.8696 17.5697 19.4766 16.6588 19.9402C17.2661 19.6311 17.7205 19.0242 18.6315 18.5606C17.7205 19.0242 16.6588 19.9402 15.7478 20.4038C16.6588 19.9402 17.4169 19.1787 18.3278 18.7151C17.1132 19.3332 15.8986 19.9514 14.8369 20.8674C15.595 20.1059 16.8096 19.4878 18.0242 18.8696C16.8096 19.4878 15.595 20.1059 14.3804 20.724C15.595 20.1059 16.9604 19.0353 18.4786 18.2626C18.7823 18.1081 18.9351 18.406 18.6315 18.5606ZM18.7843 18.8585C18.4807 19.013 18.4807 19.013 18.4807 19.013C17.2682 20.3815 16.3593 21.5955 15.754 22.655C16.3593 21.5955 17.2682 20.3815 18.0262 19.62C17.421 20.6795 16.6629 21.441 16.0577 22.5004C16.6629 21.441 17.5718 20.227 18.177 19.1675C17.5718 20.227 17.2702 21.1319 16.8158 21.7389C17.2702 21.1319 17.8754 20.0725 18.4807 19.013C18.1791 19.9179 17.7247 20.5249 17.5739 20.9774C18.0283 20.3704 18.0262 19.62 18.4807 19.013L18.7843 18.8585ZM19.5424 18.097C19.8461 17.9424 19.8461 17.9424 20.1497 17.7879C20.3026 18.0858 20.3026 18.0858 20.7591 18.2292C22.2856 20.4581 23.3556 22.5436 24.1219 24.7836C24.4256 24.6291 25.0329 24.32 25.3365 24.1655C25.791 23.5585 26.0946 23.4039 26.8548 23.3928C25.4811 21.4618 24.5619 18.9239 23.4898 16.088C22.8805 15.6467 22.2732 15.9558 21.6659 16.2648C20.9078 17.0264 20.1476 17.0375 19.9969 17.49C19.844 17.192 19.3875 17.0486 19.2346 16.7507C19.0818 16.4528 18.6253 16.3094 17.863 15.5702C15.8842 14.6987 12.6886 13.6949 11.0155 13.4193C11.474 14.313 13.9094 15.3279 15.8883 16.1994C13.9115 16.0783 11.3274 16.2663 9.80914 17.0389C11.3315 17.767 16.9562 17.5345 18.6273 17.0598C18.6273 17.0598 18.931 16.9052 19.0838 17.2032C19.5403 17.3466 19.9969 17.49 20.1497 17.7879C19.8461 17.9424 19.5424 18.097 19.0859 17.9536C19.0859 17.9536 18.7823 18.1081 18.175 18.4172C16.5039 18.8919 14.5312 20.2716 13.4695 21.1876C14.3825 21.4744 16.2044 20.5472 17.5697 19.4766C16.6609 20.6906 15.6012 22.357 14.996 23.4165C16.3634 23.0963 18.7864 19.6089 18.9351 18.406C19.2388 18.2515 19.2388 18.2515 19.5424 18.097Z" fill="#55B807"/>
<path d="M32.1743 10.2391L32.1782 10.2252L32.178 10.2107L32.0821 4.15261L32.0819 4.14261L32.0798 4.13285C32.0313 3.91064 32.1382 3.69607 32.374 3.52213C32.61 3.3481 32.9617 3.22756 33.3541 3.20459C34.1288 3.15924 35.0324 3.49439 35.4726 4.49829C35.2842 5.3744 35.1772 6.2383 35.0707 7.09722L35.0705 7.09937C34.9625 7.97057 34.8552 8.83666 34.6646 9.71399L34.6554 9.75621L34.6798 9.79182C37.1412 13.3771 37.4114 17.285 36.1986 20.8179C34.9849 24.3533 32.2846 27.5151 28.8031 29.5944C25.3223 31.6734 21.0657 32.6672 16.7422 31.8738C12.4247 31.0815 8.03183 28.5054 4.27291 23.43C4.13378 22.8476 4.07788 22.3617 4.10786 21.9746C4.13815 21.5835 4.2551 21.3025 4.45216 21.1197C4.64897 20.937 4.94111 20.838 5.35208 20.843C5.76321 20.848 6.28406 20.9574 6.92488 21.1815C17.4167 25.5384 29.0393 21.4704 32.1743 10.2391Z" fill="#FFEB00" stroke="#55B807" stroke-width="0.2"/>
</g>
<defs>
<filter id="filter0_d_17137_3435" x="0" y="0" width="41" height="45" filterUnits="userSpaceOnUse" color-interpolation-filters="sRGB">
<feFlood flood-opacity="0" result="BackgroundImageFix"/>
<feColorMatrix in="SourceAlpha" type="matrix" values="0 0 0 0 0 0 0 0 0 0 0 0 0 0 0 0 0 0 127 0" result="hardAlpha"/>
<feOffset dy="4"/>
<feGaussianBlur stdDeviation="2"/>
<feComposite in2="hardAlpha" operator="out"/>
<feColorMatrix type="matrix" values="0 0 0 0 0 0 0 0 0 0 0 0 0 0 0 0 0 0 0.25 0"/>
<feBlend mode="normal" in2="BackgroundImageFix" result="effect1_dropShadow_17137_3435"/>
<feBlend mode="normal" in="SourceGraphic" in2="effect1_dropShadow_17137_3435" result="shape"/>
</filter>
</defs>
</svg>
